# AST/ASF file generated using VICON BodyLanguage
# -----------------------------------------------
:version 1.10
:name VICON
:units
  mass 1.0
  length 0.45
  angle deg
:documentation
   .ast/.asf automatically generated from VICON data using
   VICON BodyBuilder and BodyLanguage model FoxedUp or BRILLIANT.MOD
:root
   order TX TY TZ RX RY RZ
   axis XYZ
   position 0 0 0  
   orientation 0 0 0 
:bonedata
  begin
     id 1 
     name lhipjoint
     direction 0.646657 -0.683706 0.338203 
     length 2.4948 
     axis 0 0 0  XYZ
  end
  begin
     id 2 
     name lfemur
     direction 0.34202 -0.939693 0  
     length 6.79491  
     axis 0 0 20  XYZ
    dof rx ry rz
    limits (-160.0 20.0)
           (-70.0 70.0)
           (-60.0 70.0)
  end
  begin
     id 3 
     name ltibia
     direction 0.34202 -0.939693 0   
     length 7.56807   
     axis 0 0 20   XYZ
    dof rx
    limits (-10.0 170.0)
  end
  begin
     id 4 
     name lfoot
     direction 0.0679796 -0.186772 0.980048   
     length 2.53018   
     axis -90 7.62852e-016 20   XYZ
    dof rx rz
    limits (-45.0 90.0)
           (-70.0 20.0)
  end
  begin
     id 5 
     name ltoes
     direction 1.53625e-011 -4.21881e-011 1   
     length 1.26912   
     axis -90 7.62852e-016 20   XYZ
    dof rx
    limits (-90.0 20.0)
  end
  begin
     id 6 
     name rhipjoint
     direction -0.618868 -0.704065 0.348274   
     length 2.42265  
     axis 0 0 0  XYZ 
  end
  begin
     id 7 
     name rfemur
     direction -0.34202 -0.939693 0   
     length 6.73814   
     axis 0 0 -20   XYZ
    dof rx ry rz
    limits (-160.0 20.0)
           (-70.0 70.0)
           (-70.0 60.0)
  end
  begin
     id 8 
     name rtibia
     direction -0.34202 -0.939693 0   
     length 7.66799   
     axis 0 0 -20   XYZ
    dof rx
    limits (-10.0 170.0)
 end
 begin
     id 9 
     name rfoot
     direction -0.0727352 -0.199838 0.977125   
     length 2.57224  
     axis -90 -7.62852e-016 -20   XYZ
    dof rx rz
    limits (-45.0 90.0)
           (-20.0 70.0)
  end
  begin
     id 10 
     name rtoes
     direction -1.53501e-011 -4.21858e-011 1   
     length 1.28858   
     axis -90 -7.62852e-016 -20   XYZ
    dof rx
    limits (-90.0 20.0)
  end
  begin
     id 11 
     name lowerback
     direction -0.0172471 0.995767 -0.0902851   
     length 2.20206   
     axis 0 0 0   XYZ
    dof rx ry rz
    limits (-20.0 45.0)
           (-30.0 30.0)
           (-30.0 30.0)
  end
  begin
     id 12 
     name upperback
     direction -0.000110737 0.999714 0.0239043   
     length 2.19523   
     axis 0 0 0   XYZ
    dof rx ry rz
    limits (-20.0 45.0)
           (-30.0 30.0)
           (-30.0 30.0)
  end
  begin
     id 13 
     name thorax
     direction 0.00704869 0.997783 0.0661741   
     length 2.21977   
     axis 0 0 0   XYZ
    dof rx ry rz
    limits (-20.0 45.0)
           (-30.0 30.0)
           (-30.0 30.0)
  end
  begin
     id 14 
     name lowerneck
     direction -0.00407501 0.995527 0.0943846   
     length 1.83142   
     axis 0 0 0   XYZ
    dof rx ry rz
    limits (-20.0 45.0)
           (-30.0 30.0)
           (-30.0 30.0)
  end
  begin
     id 15 
     name upperneck
     direction 0.0640586 0.986486 -0.150807   
     length 1.84616   
     axis 0 0 0   XYZ
    dof rx ry rz
    limits (-20.0 45.0)
           (-30.0 30.0)
           (-30.0 30.0)
  end
  begin
     id 16
     name head
     direction 0.0188017 0.99791 -0.0618239  
     length 1.85932  
     axis 0 0 0   XYZ
    dof rx ry rz
    limits (-20.0 45.0)
           (-30.0 30.0)
           (-30.0 30.0)
  end
  begin
     id 17 
     name lclavicle
     direction 0.976074 0.206905 0.066852  
     length 3.81043  
     axis 0 0 0   XYZ
    dof ry rz
    limits (-20.0 10.0)
           (0.0 20.0)
  end
  begin
     id 18 
     name lhumerus
     direction 1 -4.48971e-011 1.86916e-027   
     length 5.37587   
     axis 180 -30 -90   XYZ
    dof rx ry rz
    limits (-60.0 90.0)
           (-90.0 90.0)
           (-90.0 90.0)
  end
  begin
     id 19
     name lradius
     direction 1 -4.48968e-011 1.69187e-027   
     length 3.35977   
     axis 180 -30 -90   XYZ
    dof rx
    limits (-10.0 170.0)
  end
  begin
     id 20
     name lwrist
     direction 1 -4.48968e-011 5.8978e-027   
     length 1.67988   
     axis -3.27506e-015 90 90   XYZ
    dof ry
    limits (-180.0 0.0)
 end
  begin
     id 21 
     name lhand
     direction 1 -4.49028e-011 1.18071e-026   
     length 0.561859   
     axis -7.52654e-015 90 90   XYZ
    dof rx rz
    limits (-90.0 90.0)
           (-45.0 45.0)
  end
  begin
     id 22 
     name lfingers
     direction 1 -4.48927e-011 2.35758e-026   
     length 0.452985   
     axis -1.50534e-014 90 90   XYZ
    dof rx
    limits (0.0 90.0)
  end
  begin
     id 23
     name lthumb
     direction 0.707107 -6.34898e-011 0.707107   
     length 0.650399   
     axis -90 45 5.69224e-014   XYZ
    dof rx rz
    limits (-45.0 45.0)
           (-45.0 45.0)
  end
  begin
     id 24 
     name rclavicle
     direction -0.988403 0.151789 0.00439714   
     length 3.6942  
     axis 0 0 0   XYZ 
    dof ry rz
    limits (-10.0 20.0)
           (-20.0 0.0)
  end
  begin
     id 25 
     name rhumerus
     direction -1 -4.48978e-011 1.62495e-027  
     length 5.22819   
     axis 180 30 90   XYZ
    dof rx ry rz
    limits (-90.0 60.0)
           (-90.0 90.0)
           (-90.0 90.0)
  end
  begin
     id 26 
     name rradius
     direction -1 -4.48961e-011 3.47796e-027   
     length 3.40764   
     axis 180 30 90   XYZ
    dof rx
    limits (-10.0 170.0)
  end
  begin
     id 27 
     name rwrist
     direction -1 -4.48949e-011 5.89602e-027   
     length 1.70382   
     axis -3.27506e-015 -90 -90   XYZ
    dof ry
    limits (-180.0 0.0)
  end
  begin
     id 28
     name rhand
     direction -1 -4.48977e-011 1.17973e-026   
     length 0.583255   
     axis -7.52654e-015 -90 -90   XYZ
    dof rx rz
    limits (-90.0 90.0)
           (-45.0 45.0)
  end
  begin
     id 29
     name rfingers
     direction -1 -4.49099e-011 2.36408e-026   
     length 0.470235   
     axis -1.50534e-014 -90 -90   XYZ
    dof rx
    limits (0.0 90.0)
  end
  begin
     id 30
     name rthumb
     direction -0.707107 -6.35011e-011 0.707107   
     length 0.675167   
     axis -90 -45 -5.69224e-014   XYZ
    dof rx rz
    limits (-45.0 45.0)
           (-45.0 45.0)
  end
:hierarchy
  begin
    root lhipjoint rhipjoint lowerback
    lhipjoint lfemur
    lfemur ltibia
    ltibia lfoot
    lfoot ltoes
    rhipjoint rfemur
    rfemur rtibia
    rtibia rfoot
    rfoot rtoes
    lowerback upperback
    upperback thorax
    thorax lowerneck lclavicle rclavicle
    lowerneck upperneck
    upperneck head
    lclavicle lhumerus
    lhumerus lradius
    lradius lwrist
    lwrist lhand lthumb
    lhand lfingers
    rclavicle rhumerus
    rhumerus rradius
    rradius rwrist
    rwrist rhand rthumb
    rhand rfingers
  end

#!OML:ASF G:\JayActor3\Patient Classification 1\Patient 1\Session 2\male.ASF
:FULLY-SPECIFIED
:DEGREES
1405
root -40.1762 16.6742 -3.84441 360.233 63.4327 -4.26712
lowerback 1.36612 -2.54122 0.246979
upperback 7.25481 -3.36321 1.73128
thorax 6.87614 -1.6546 1.51841
lowerneck -4.52804 1.91164 3.55994
upperneck 15.703 2.28212 0.612674
head 5.51479 1.41002 -0.252894
rclavicle -3.52346e-014 1.05356e-014
rhumerus -24.0044 26.0917 -95.8327
rradius 45.1694
rwrist -1.27434
rhand 1.05042 -4.28183
rfingers 7.12502
rthumb 26.5961 -32.4341
lclavicle -3.52346e-014 1.05356e-014
lhumerus -28.8193 -3.60241 94.3026
lradius 36.6272
lwrist 16.3493
lhand -12.3676 24.776
lfingers 7.12502
lthumb 13.7028 54.3049
rfemur -22.3789 3.35412 24.8662
rtibia 37.2577
rfoot -26.2842 4.65184
rtoes 2.78054
lfemur -15.0968 11.7729 -21.248
ltibia 38.2226
lfoot -23.0715 18.1119
ltoes -17.4329
1406
root -40.1755 16.6755 -3.83385 360.18 63.767 -4.26114
lowerback 1.43192 -2.38022 0.435741
upperback 7.363 -3.14436 1.66532
thorax 6.93304 -1.53025 1.35619
lowerneck -4.44546 2.35105 3.8932
upperneck 15.7247 2.89724 0.302473
head 5.5271 1.708 -0.36703
rclavicle 2.93207e-015 8.24956e-015
rhumerus -23.9253 25.7706 -95.7532
rradius 45.1641
rwrist -1.24927
rhand 0.947104 -4.32534
rfingers 7.12502
rthumb 26.4972 -32.4926
lclavicle 2.93207e-015 8.24956e-015
lhumerus -28.7491 -4.10534 94.4023
lradius 37.2969
lwrist 16.2148
lhand -12.6111 24.8334
lfingers 7.12502
lthumb 13.4681 54.378
rfemur -22.2518 3.26579 24.8822
rtibia 37.2168
rfoot -26.475 4.50797
rtoes 2.6595
lfemur -15.4817 11.5702 -21.1241
ltibia 38.8855
lfoot -22.8087 17.7334
ltoes -18.2023
1407
root -40.1743 16.6773 -3.82314 360.178 64.1057 -4.21215
lowerback 1.49168 -2.22957 0.587096
upperback 7.4666 -2.93847 1.59888
thorax 6.99294 -1.41441 1.21327
lowerneck -4.34559 2.73411 4.17519
upperneck 15.7142 3.441 9.24594e-005
head 5.5277 1.96847 -0.475011
rclavicle 2.8128e-014 -1.72943e-014
rhumerus -23.838 25.4612 -95.6663
rradius 45.1445
rwrist -1.25445
rhand 0.919391 -4.38139
rfingers 7.12502
rthumb 26.4707 -32.5526
lclavicle 2.8128e-014 -1.72943e-014
lhumerus -28.7018 -4.57141 94.4963
lradius 37.9919
lwrist 16.0691
lhand -12.8282 24.9128
lfingers 7.12502
lthumb 13.2588 54.4711
rfemur -22.1424 3.17545 24.875
rtibia 37.1856
rfoot -26.6567 4.37261
rtoes 2.57932
lfemur -15.8663 11.3426 -21.0254
ltibia 39.4909
lfoot -22.5865 17.3732
ltoes -18.76
1408
root -40.1728 16.6794 -3.81228 360.212 64.4714 -4.14073
lowerback 1.54661 -2.09371 0.709805
upperback 7.56375 -2.75191 1.5373
thorax 7.05251 -1.30995 1.09023
lowerneck -4.25189 3.07373 4.42063
upperneck 15.6976 3.92915 -0.300695
head 5.52844 2.19994 -0.57981
rclavicle 4.7758e-014 -1.14301e-014
rhumerus -23.744 25.1615 -95.5682
rradius 45.1122
rwrist -1.26976
rhand 0.938679 -4.41978
rfingers 7.12502
rthumb 26.4892 -32.5882
lclavicle 4.7758e-014 -1.14301e-014
lhumerus -28.6703 -5.00964 94.5899
lradius 38.6901
lwrist 15.926
lhand -13.0413 24.9938
lfingers 7.12502
lthumb 13.0534 54.5653
rfemur -22.0512 3.06997 24.8554
rtibia 37.1613
rfoot -26.8377 4.22856
rtoes 2.51731
lfemur -16.2484 11.0772 -20.9426
ltibia 40.0296
lfoot -22.3987 17.0305
ltoes -19.2167
1409
root -40.1707 16.6818 -3.8013 360.29 64.84 -4.0395
lowerback 1.59623 -1.9636 0.800713
upperback 7.64941 -2.57278 1.4821
thorax 7.10603 -1.21141 0.991066
lowerneck -4.15806 3.37436 4.61783
upperneck 15.6808 4.36726 -0.586376
head 5.52893 2.40554 -0.67505
rclavicle -1.20265e-014 -3.47873e-015
rhumerus -23.6584 24.8766 -95.4602
rradius 45.0772
rwrist -1.30432
rhand 0.984765 -4.47736
rfingers 7.12502
rthumb 26.5333 -32.6392
lclavicle -1.20265e-014 -3.47873e-015
lhumerus -28.6549 -5.41601 94.6874
lradius 39.3749
lwrist 15.7943
lhand -13.2185 25.0828
lfingers 7.12502
lthumb 12.8826 54.6652
rfemur -21.9767 2.95521 24.8202
rtibia 37.1394
rfoot -27.0184 4.07881
rtoes 2.4299
lfemur -16.6203 10.793 -20.8806
ltibia 40.494
lfoot -22.2431 16.7321
ltoes -19.5739
1410
root -40.1678 16.6845 -3.79029 360.395 65.2141 -3.92573
lowerback 1.64319 -1.84162 0.866331
upperback 7.72 -2.40468 1.43779
thorax 7.1476 -1.12047 0.916849
lowerneck -4.06259 3.6449 4.76552
upperneck 15.6692 4.76632 -0.848205
head 5.52987 2.59122 -0.757154
rclavicle 6.23687e-014 4.96962e-016
rhumerus -23.591 24.613 -95.345
rradius 45.0459
rwrist -1.35568
rhand 1.01163 -4.52519
rfingers 7.12502
rthumb 26.559 -32.6831
lclavicle 6.23687e-014 4.96962e-016
lhumerus -28.6509 -5.78576 94.7923
lradius 40.0222
lwrist 15.6771
lhand -13.3733 25.144
lfingers 7.12502
lthumb 12.7333 54.7358
rfemur -21.9169 2.82171 24.7784
rtibia 37.1157
rfoot -27.1995 3.92213
rtoes 2.30813
lfemur -16.9824 10.4838 -20.8319
ltibia 40.8846
lfoot -22.1196 16.4864
ltoes -19.9022
1411
root -40.1641 16.6875 -3.77931 360.492 65.6015 -3.83723
lowerback 1.67119 -1.73351 0.929535
upperback 7.78472 -2.25614 1.40325
thorax 7.19532 -1.03973 0.852706
lowerneck -3.9617 3.89146 4.86504
upperneck 15.6544 5.13303 -1.07722
head 5.52733 2.76079 -0.823364
rclavicle 7.70291e-015 -1.43125e-014
rhumerus -23.5402 24.3888 -95.2301
rradius 45.0374
rwrist -1.43412
rhand 1.01749 -4.58195
rfingers 7.12502
rthumb 26.5646 -32.739
lclavicle 7.70291e-015 -1.43125e-014
lhumerus -28.6402 -6.11548 94.8921
lradius 40.6244
lwrist 15.5812
lhand -13.4941 25.1711
lfingers 7.12502
lthumb 12.6169 54.77
rfemur -21.8649 2.66898 24.7471
rtibia 37.0841
rfoot -27.3881 3.76277
rtoes 2.16254
lfemur -17.3338 10.1493 -20.778
ltibia 41.2026
lfoot -22.0198 16.2963
ltoes -20.1928
1412
root -40.1592 16.6904 -3.76844 360.564 66.0049 -3.78497
lowerback 1.6897 -1.64061 0.994178
upperback 7.84055 -2.12893 1.38022
thorax 7.24017 -0.969959 0.798631
lowerneck -3.88619 4.12324 4.96924
upperneck 15.669 5.47984 -1.31397
head 5.53926 2.92076 -0.893095
rclavicle -1.23743e-014 -3.37934e-015
rhumerus -23.5199 24.2053 -95.1209
rradius 45.0558
rwrist -1.54142
rhand 0.977433 -4.64945
rfingers 7.12502
rthumb 26.5262 -32.8123
lclavicle -1.23743e-014 -3.37934e-015
lhumerus -28.6278 -6.39788 94.9873
lradius 41.1785
lwrist 15.5091
lhand -13.5519 25.2346
lfingers 7.12502
lthumb 12.5612 54.837
rfemur -21.8101 2.49406 24.7308
rtibia 37.0405
rfoot -27.5834 3.61553
rtoes 2.01353
lfemur -17.6656 9.79223 -20.714
ltibia 41.4508
lfoot -21.9407 16.1657
ltoes -20.4553
1413
root -40.1526 16.6936 -3.75763 360.599 66.4302 -3.7724
lowerback 1.68604 -1.56601 1.07285
upperback 7.89772 -2.02736 1.36122
thorax 7.29969 -0.911993 0.739229
lowerneck -3.80049 4.34123 5.05673
upperneck 15.6767 5.80697 -1.52917
head 5.54672 3.07174 -0.954883
rclavicle 1.94809e-014 2.18663e-015
rhumerus -23.5118 24.0546 -95.0232
rradius 45.0873
rwrist -1.67063
rhand 0.946158 -4.74303
rfingers 7.12502
rthumb 26.4963 -32.9104
lclavicle 1.94809e-014 2.18663e-015
lhumerus -28.6011 -6.64404 95.0693
lradius 41.6652
lwrist 15.4546
lhand -13.5604 25.313
lfingers 7.12502
lthumb 12.5529 54.9159
rfemur -21.7374 2.29338 24.7294
rtibia 36.9819
rfoot -27.7872 3.49145
rtoes 1.88582
lfemur -17.9643 9.41484 -20.6372
ltibia 41.6297
lfoot -21.8728 16.0629
ltoes -20.6431
1414
root -40.1444 16.6968 -3.74691 360.592 66.8662 -3.80266
lowerback 1.6598 -1.50376 1.16616
upperback 7.95544 -1.94357 1.34551
thorax 7.37309 -0.861868 0.673827
lowerneck -3.68859 4.54489 5.1239
upperneck 15.6609 6.11339 -1.71645
head 5.54115 3.21345 -1.0069
rclavicle 1.67973e-014 -1.59028e-014
rhumerus -23.5189 23.9336 -94.9378
rradius 45.1325
rwrist -1.81994
rhand 0.923354 -4.85212
rfingers 7.12502
rthumb 26.4745 -33.0228
lclavicle 1.67973e-014 -1.59028e-014
lhumerus -28.5685 -6.85896 95.1389
lradius 42.096
lwrist 15.4163
lhand -13.5315 25.4124
lfingers 7.12502
lthumb 12.5808 55.0136
rfemur -21.6484 2.07264 24.7437
rtibia 36.9087
rfoot -27.9919 3.3935
rtoes 1.76971
lfemur -18.2282 9.0386 -20.5482
ltibia 41.7403
lfoot -21.8079 15.9788
ltoes -20.7273
1415
root -40.1345 16.6999 -3.73637 360.557 67.278 -3.86674
lowerback 1.62931 -1.43532 1.26523
upperback 8.00335 -1.85231 1.33446
thorax 7.4387 -0.807976 0.610516
lowerneck -3.55389 4.72875 5.16901
upperneck 15.6267 6.39121 -1.87274
head 5.52396 3.34231 -1.04845
rclavicle 1.60022e-014 -6.36111e-015
rhumerus -23.544 23.8152 -94.8573
rradius 45.1749
rwrist -1.97638
rhand 0.911626 -4.95379
rfingers 7.12502
rthumb 26.4633 -33.1261
lclavicle 1.60022e-014 -6.36111e-015
lhumerus -28.542 -7.06137 95.2084
lradius 42.466
lwrist 15.3851
lhand -13.4641 25.5493
lfingers 7.12502
lthumb 12.6458 55.1465
rfemur -21.5525 1.84801 24.7691
rtibia 36.8228
rfoot -28.1801 3.33183
rtoes 1.66896
lfemur -18.4584 8.69315 -20.4529
ltibia 41.7839
lfoot -21.7576 15.884
ltoes -20.7361
1416
root -40.1234 16.7031 -3.72596 360.495 67.67 -3.96348
lowerback 1.60196 -1.3549 1.37042
upperback 8.04413 -1.74539 1.32497
thorax 7.49504 -0.746069 0.546441
lowerneck -3.4317 4.8958 5.22363
upperneck 15.5898 6.64192 -2.01176
head 5.50744 3.45967 -1.08772
rclavicle 2.99171e-014 -2.10712e-014
rhumerus -23.576 23.6742 -94.7757
rradius 45.2127
rwrist -2.12472
rhand 0.911412 -5.03072
rfingers 7.12502
rthumb 26.4631 -33.2031
lclavicle 2.99171e-014 -2.10712e-014
lhumerus -28.513 -7.2789 95.277
lradius 42.7779
lwrist 15.3641
lhand -13.3771 25.6832
lfingers 7.12502
lthumb 12.7296 55.2752
rfemur -21.4537 1.621 24.8051
rtibia 36.7279
rfoot -28.3524 3.29879
rtoes 1.59413
lfemur -18.6605 8.38565 -20.3527
ltibia 41.7657
lfoot -21.7171 15.7619
ltoes -20.6702
1417
root -40.1113 16.706 -3.71559 360.402 68.0646 -4.09467
lowerback 1.59093 -1.26708 1.48092
upperback 8.07724 -1.62838 1.3172
thorax 7.534 -0.678991 0.48219
lowerneck -3.34365 5.04696 5.29164
upperneck 15.5642 6.86573 -2.13385
head 5.49969 3.56563 -1.1246
rclavicle -2.51463e-014 3.39922e-014
rhumerus -23.6122 23.5033 -94.6934
rradius 45.2463
rwrist -2.26381
rhand 0.924905 -5.10653
rfingers 7.12502
rthumb 26.476 -33.277
lclavicle -2.51463e-014 3.39922e-014
lhumerus -28.4829 -7.52509 95.3451
lradius 43.0394
lwrist 15.3505
lhand -13.2769 25.8017
lfingers 7.12502
lthumb 12.8263 55.3876
rfemur -21.3507 1.38632 24.8531
rtibia 36.629
rfoot -28.5217 3.26876
rtoes 1.51728
lfemur -18.8369 8.10281 -20.2467
ltibia 41.6922
lfoot -21.6819 15.6083
ltoes -20.6942
